#!OML:ASF H:\GeneralSubjects\Female5\Project 1\Capture day 1\Session 1\Female5.ASF
:FULLY-SPECIFIED
:DEGREES
328
root -9.06844 16.0067 11.9021 5.39682 23.2711 -3.83782
lowerback 24.1539 5.9278 10.7181
upperback -17.0892 12.4407 -7.28029
thorax -38.1874 -2.54648 -26.2986
lowerneck -3.07711 -5.50773 7.71329
upperneck 51.8677 -10.5177 3.81382
head 21.8686 -1.40412 -0.886674
rclavicle 1.65389e-013 -4.13472e-014
rhumerus -81.553 -13.2873 -79.6487
rradius 38.1129
rwrist -7.82272
rhand -24.6535 -18.5942
rfingers 7.12502
rthumb 1.84617 -48.566
lclavicle 1.65389e-013 -4.13472e-014
lhumerus -71.707 -36.201 86.6413
lradius 38.5126
lwrist -2.88803
lhand -26.7034 24.9646
lfingers 7.12502
lthumb -0.133587 54.9443
rfemur -12.9951 18.7468 27.2417
rtibia 4.15151
rfoot -2.75214 -8.28514
rtoes -16.4989
lfemur -4.79603 -12.2892 -23.8808
ltibia 41.227
lfoot -24.7017 3.9828
ltoes -45.1076
329
root -9.12004 16.033 12.0367 5.42206 24.6606 -4.21255
lowerback 23.9886 5.90635 11.4347
upperback -17.0774 12.6819 -7.44655
thorax -37.5251 -2.55865 -27.0759
lowerneck -2.97513 -5.46278 7.73482
upperneck 51.5121 -10.4296 4.10222
head 21.5551 -1.33999 -0.714371
rclavicle -5.40694e-014 1.90833e-014
rhumerus -81.2567 -13.6184 -79.8137
rradius 38.7518
rwrist -7.74583
rhand -25.0174 -18.4532
rfingers 7.12502
rthumb 1.49472 -48.4277
lclavicle -5.40694e-014 1.90833e-014
lhumerus -71.504 -36.7549 87.0032
lradius 38.886
lwrist -2.6213
lhand -26.2314 25.1995
lfingers 7.12502
lthumb 0.322245 55.179
rfemur -12.1672 19.2206 27.9308
rtibia 3.41508
rfoot -3.98429 -9.763
rtoes -14.1485
lfemur -5.92043 -11.2491 -23.3479
ltibia 41.7304
lfoot -27.8116 4.54286
ltoes -46.0755
330
root -9.16136 16.0566 12.1642 5.46932 26.1729 -4.42782
lowerback 23.7801 5.92553 11.9693
upperback -17.0041 12.8488 -7.64757
thorax -36.6677 -2.44805 -27.6293
lowerneck -2.61957 -5.53474 7.85652
upperneck 50.8668 -10.3796 4.23556
head 20.9992 -1.34442 -0.564707
rclavicle -6.52014e-014 3.81667e-014
rhumerus -80.7864 -13.9955 -79.7478
rradius 39.3444
rwrist -7.64223
rhand -25.1677 -18.0224
rfingers 7.12502
rthumb 1.34964 -47.9978
lclavicle -6.52014e-014 3.81667e-014
lhumerus -71.0112 -37.3158 87.426
lradius 39.1923
lwrist -2.45684
lhand -26.027 25.0367
lfingers 7.12502
lthumb 0.51969 55.0158
rfemur -11.4444 19.6539 28.4124
rtibia 2.92595
rfoot -5.42157 -11.1784
rtoes -11.8525
lfemur -6.75583 -10.4652 -23.1723
ltibia 41.3035
lfoot -30.7962 4.95034
ltoes -46.9235
331
root -9.20334 16.0751 12.2838 5.60594 27.7916 -4.49354
lowerback 23.6712 5.94083 12.1594
upperback -16.9186 12.8825 -7.81436
thorax -36.1449 -2.36487 -27.9049
lowerneck -3.14182 -5.58254 7.90207
upperneck 50.7252 -10.4815 4.25343
head 21.037 -1.34483 -0.593357
rclavicle 4.45278e-014 0
rhumerus -80.3682 -14.1805 -79.8023
rradius 39.9299
rwrist -8.01483
rhand -25.1318 -17.5775
rfingers 7.12502
rthumb 1.38426 -47.5528
lclavicle 4.45278e-014 0
lhumerus -70.6987 -37.7946 87.9702
lradius 39.5703
lwrist -2.06329
lhand -26.2911 24.8377
lfingers 7.12502
lthumb 0.264613 54.8173
rfemur -10.925 19.5636 28.7259
rtibia 2.57196
rfoot -6.4667 -12.3316
rtoes -11.7765
lfemur -7.72822 -9.52973 -23.1709
ltibia 40.3937
lfoot -32.6596 4.08161
ltoes -46.9856
332
root -9.25145 16.0927 12.4031 5.65786 29.4835 -4.64513
lowerback 23.6541 5.92405 12.2615
upperback -16.8537 12.8806 -7.88693
thorax -35.8918 -2.32603 -28.0293
lowerneck -3.73059 -5.59451 8.10021
upperneck 50.7813 -10.4705 4.03147
head 21.2104 -1.27903 -0.75281
rclavicle 2.54444e-014 -9.54166e-015
rhumerus -80.1153 -14.3545 -79.6129
rradius 40.2571
rwrist -8.05638
rhand -24.9347 -17.1903
rfingers 7.12502
rthumb 1.57465 -47.1642
lclavicle 2.54444e-014 -9.54166e-015
lhumerus -70.5438 -38.0915 88.4389
lradius 40.0331
lwrist -1.53961
lhand -26.3253 25.0569
lfingers 7.12502
lthumb 0.231528 55.0365
rfemur -10.3008 19.3948 29.1593
rtibia 2.09573
rfoot -7.40418 -13.2946
rtoes -11.3876
lfemur -8.79268 -8.1999 -23.0425
ltibia 39.2688
lfoot -33.3242 2.03677
ltoes -47.0075
333
root -9.29693 16.113 12.5242 5.68603 31.2969 -4.70426
lowerback 23.5833 5.86914 12.3852
upperback -16.7609 12.8052 -7.98459
thorax -35.5389 -2.28588 -28.1311
lowerneck -3.5979 -5.55832 7.98402
upperneck 50.24 -10.318 4.21536
head 20.7617 -1.24648 -0.612404
rclavicle 2.14687e-014 -3.18055e-015
rhumerus -79.9132 -14.5653 -79.3768
rradius 40.4651
rwrist -7.79096
rhand -24.7978 -16.6413
rfingers 7.12502
rthumb 1.70685 -46.6142
lclavicle 2.14687e-014 -3.18055e-015
lhumerus -70.236 -38.4275 88.8663
lradius 40.3027
lwrist -1.28466
lhand -26.2305 25.2953
lfingers 7.12502
lthumb 0.323136 55.2748
rfemur -9.43627 19.9096 29.5072
rtibia 1.48079
rfoot -8.86732 -14.6508
rtoes -9.20124
lfemur -9.69643 -6.91403 -23.1221
ltibia 37.8197
lfoot -33.0085 -0.490744
ltoes -46.4824
334
root -9.33947 16.1347 12.6432 5.79463 33.2012 -4.5778
lowerback 23.4041 5.79873 12.5384
upperback -16.6391 12.6724 -8.15734
thorax -35 -2.22919 -28.2799
lowerneck -3.91733 -5.48324 7.79529
upperneck 50.1958 -10.2106 4.43432
head 20.8654 -1.17598 -0.450334
rclavicle 1.51076e-014 -3.18055e-014
rhumerus -79.5823 -14.7861 -79.3352
rradius 40.6116
rwrist -7.97734
rhand -24.8637 -16.3978
rfingers 7.12502
rthumb 1.64322 -46.3712
lclavicle 1.51076e-014 -3.18055e-014
lhumerus -69.7354 -38.7656 89.2002
lradius 40.4315
lwrist -1.2435
lhand -26.372 25.4945
lfingers 7.12502
lthumb 0.18642 55.4741
rfemur -8.66741 20.1904 29.6674
rtibia 0.993099
rfoot -10.039 -16.1533
rtoes -8.82148
lfemur -10.5347 -5.89915 -23.5457
ltibia 36.2611
lfoot -32.1828 -4.15711
ltoes -43.6152
335
root -9.38553 16.1535 12.7555 5.95099 35.1755 -4.51707
lowerback 23.149 5.71795 12.7602
upperback -16.5722 12.5698 -8.2983
thorax -34.5016 -2.1862 -28.4466
lowerneck -3.92668 -5.49683 7.72554
upperneck 49.9575 -10.0743 4.34903
head 20.6628 -1.14211 -0.459342
rclavicle 7.31528e-014 -1.01778e-013
rhumerus -79.3385 -14.9824 -79.3549
rradius 40.6975
rwrist -8.45481
rhand -25.44 -16.6531
rfingers 7.12502
rthumb 1.08659 -46.6301
lclavicle 7.31528e-014 -1.01778e-013
lhumerus -69.3523 -38.9515 89.503
lradius 40.6463
lwrist -1.073
lhand -26.438 25.9779
lfingers 7.12502
lthumb 0.122753 55.9576
rfemur -8.17344 20.1692 29.8608
rtibia 0.683412
rfoot -11.0677 -17.6366
rtoes -8.81516
lfemur -11.5513 -5.04409 -24.0024
ltibia 34.9183
lfoot -31.6181 -5.03386
ltoes -44.7768
336
root -9.42394 16.1676 12.8639 6.18442 37.2827 -4.4156
lowerback 23.0166 5.70809 12.3837
upperback -16.4864 12.3419 -8.33023
thorax -34.301 -2.04446 -27.9615
lowerneck -4.70746 -5.5538 7.73173
upperneck 49.8867 -10.1606 4.16448
head 20.8063 -1.15584 -0.590751
rclavicle -5.88403e-014 -1.46306e-013
rhumerus -79.1155 -15.0192 -79.1713
rradius 40.8111
rwrist -8.95974
rhand -26.1179 -16.8741
rfingers 7.12502
rthumb 0.431915 -46.8534
lclavicle -5.88403e-014 -1.46306e-013
lhumerus -68.8668 -39.0907 90.0984
lradius 40.7937
lwrist -0.875218
lhand -26.4534 26.1476
lfingers 7.12502
lthumb 0.107796 56.1273
rfemur -7.75356 20.0924 29.9919
rtibia 0.41906
rfoot -12.2171 -19.1402
rtoes -8.68868
lfemur -12.5681 -4.44874 -24.6418
ltibia 33.6512
lfoot -31.2241 -5.8832
ltoes -46.1355
337
root -9.45066 16.1792 12.9708 6.4187 39.4375 -4.20664
lowerback 22.7338 5.61497 12.3721
upperback -16.3817 12.1077 -8.43491
thorax -33.8135 -1.95133 -27.7891
lowerneck -4.90741 -5.54544 7.64653
upperneck 49.5281 -10.0057 4.01606
head 20.5594 -1.13524 -0.637385
rclavicle 1.05753e-013 -1.59028e-014
rhumerus -78.8728 -14.9667 -79.1838
rradius 40.797
rwrist -9.30829
rhand -26.233 -16.8668
rfingers 7.12502
rthumb 0.320723 -46.8463
lclavicle 1.05753e-013 -1.59028e-014
lhumerus -68.3725 -39.2095 90.4846
lradius 40.9048
lwrist -0.702252
lhand -26.2764 26.1672
lfingers 7.12502
lthumb 0.278769 56.1467
rfemur -7.38753 19.2738 30.0179
rtibia 0.278342
rfoot -12.9387 -20.0563
rtoes -9.7781
lfemur -13.3493 -3.90413 -25.4837
ltibia 32.2551
lfoot -30.8849 -6.49514
ltoes -47.2887
